<svg width="1440" height="377" viewBox="0 0 1440 377" fill="none" xmlns="http://www.w3.org/2000/svg">
<rect x="953" y="144" width="384" height="148" rx="40" fill="#FDF06F"/>
<ellipse cx="982.922" cy="174" rx="14.961" ry="15" fill="#C2D8E3"/>
<path d="M1118 292V292C1118 331.337 1155.17 360.063 1193.24 350.144L1236 339L1282.24 329.752C1310.89 324.021 1334.36 303.531 1343.91 275.912V275.912C1354.59 244.987 1382.58 223.325 1415.2 220.733L1437 219" stroke="#747474" stroke-linecap="round" stroke-dasharray="8 8"/>
<rect x="528" y="144" width="384" height="148" rx="40" fill="#FFDDD9"/>
<ellipse cx="557.922" cy="262" rx="14.961" ry="15" fill="#C2D8E3"/>
<path d="M634.548 143.554V143.554C646.342 111.084 676.399 88.8053 710.896 86.9655L749.704 84.8958C760.832 84.3022 771.799 81.97 782.206 77.9836L836.127 57.3293C875.196 42.3638 917.744 68.8841 921.514 110.551V110.551C923.383 131.214 935.294 149.637 953.369 159.822L994.5 183" stroke="#747474" stroke-linecap="round" stroke-dasharray="8 8"/>
<rect x="103" y="144" width="385" height="148" rx="40" fill="#BAE66C"/>
<circle cx="133" cy="174" r="15" fill="#C2D8E3"/>
<path d="M0.705748 62.9534L10.3645 69.0313C21.3703 75.9568 33.5014 80.9062 46.2107 83.6563V83.6563C86.9397 92.4692 119.369 123.234 130.315 163.442L137 188" stroke="#747474" stroke-linecap="round" stroke-dasharray="8 8"/>
<path d="M158.5 292L159.539 295.218C173.929 339.8 216.721 368.946 263.475 366.011V366.011C284.326 364.702 304.278 357.051 320.658 344.083L333.102 334.232C362.958 310.596 400.55 298.93 438.542 301.51L440.975 301.676C486.175 304.746 530.548 288.445 563.011 256.843L568.5 251.499" stroke="#747474" stroke-linecap="round" stroke-dasharray="8 8"/>
</svg>
