<svg width="834" height="731" viewBox="0 0 834 731" fill="none" xmlns="http://www.w3.org/2000/svg">
<rect x="428" y="430" width="357" height="148" rx="40" fill="#FDF06F"/>
<circle cx="458" cy="460" r="15" fill="#C2D8E3"/>
<path d="M564.648 578.717L615.984 596.639C630.501 601.708 642.692 611.862 650.301 625.224V625.224C666.771 654.146 702.747 665.488 732.826 651.24L736.955 649.284C764.764 636.112 797.942 643.083 818.098 666.334L833.717 684.351" stroke="#747474" stroke-linecap="round" stroke-dasharray="8 8"/>
<rect x="238" y="242" width="357" height="148" rx="40" fill="#FFDDD9"/>
<ellipse cx="267.922" cy="360" rx="14.961" ry="15" fill="#C2D8E3"/>
<path d="M359.699 389.893V389.893C401.83 403.291 438.679 429.601 465.032 465.098L468.894 470.3" stroke="#747474" stroke-linecap="round" stroke-dasharray="8 8"/>
<rect x="50" y="54" width="357" height="148" rx="40" fill="#BAE56C"/>
<circle cx="80" cy="84" r="15" fill="#C2D8E3"/>
<path d="M0.707259 22.9822V22.9822C36.6763 30.2131 66.9653 54.3171 82.0871 87.7444L86.5004 97.5" stroke="#747474" stroke-linecap="round" stroke-dasharray="8 8"/>
<path d="M91.7065 202.962V202.962C69.4343 237.745 86.3075 284.186 125.713 296.56L139.134 300.774C146.913 303.217 155.191 303.609 163.166 301.914L174.882 299.423C196.073 294.918 216.508 309.732 218.818 331.273V331.273C221.078 352.36 240.753 367.1 261.624 363.346L283 359.5" stroke="#747474" stroke-linecap="round" stroke-dasharray="8 8"/>
</svg>
